<svg id="visual" viewBox="0 0 900 600" width="900" height="600" xmlns="http://www.w3.org/2000/svg" xmlns:xlink="http://www.w3.org/1999/xlink" version="1.1"><rect x="0" y="0" width="900" height="600" fill="#FFFFFF"></rect><path d="M0 413L10 413.8C20 414.7 40 416.3 60 423.8C80 431.3 100 444.7 120 436.2C140 427.7 160 397.3 180 394C200 390.7 220 414.3 240 425.8C260 437.3 280 436.7 300 430.5C320 424.3 340 412.7 360 409C380 405.3 400 409.7 420 411.3C440 413 460 412 480 414.8C500 417.7 520 424.3 540 423.8C560 423.3 580 415.7 600 421.8C620 428 640 448 660 455.8C680 463.7 700 459.3 720 446C740 432.7 760 410.3 780 399C800 387.7 820 387.3 840 384.5C860 381.7 880 376.3 890 373.7L900 371L900 601L890 601C880 601 860 601 840 601C820 601 800 601 780 601C760 601 740 601 720 601C700 601 680 601 660 601C640 601 620 601 600 601C580 601 560 601 540 601C520 601 500 601 480 601C460 601 440 601 420 601C400 601 380 601 360 601C340 601 320 601 300 601C280 601 260 601 240 601C220 601 200 601 180 601C160 601 140 601 120 601C100 601 80 601 60 601C40 601 20 601 10 601L0 601Z" fill="#be123d" stroke-linecap="round" stroke-linejoin="miter"></path></svg>