<svg id="visual" viewBox="0 0 960 540" width="960" height="540" xmlns="http://www.w3.org/2000/svg" xmlns:xlink="http://www.w3.org/1999/xlink" version="1.1"><rect x="0" y="0" width="960" height="540" fill="#1d4ed8"></rect><path d="M0 252L22.8 252.2C45.7 252.3 91.3 252.7 137 238.5C182.7 224.3 228.3 195.7 274 179.8C319.7 164 365.3 161 411.2 171.5C457 182 503 206 548.8 220.3C594.7 234.7 640.3 239.3 686 238.7C731.7 238 777.3 232 823 230C868.7 228 914.3 230 937.2 231L960 232L960 541L937.2 541C914.3 541 868.7 541 823 541C777.3 541 731.7 541 686 541C640.3 541 594.7 541 548.8 541C503 541 457 541 411.2 541C365.3 541 319.7 541 274 541C228.3 541 182.7 541 137 541C91.3 541 45.7 541 22.8 541L0 541Z" fill="#ffffff"></path><path d="M0 303L22.8 312.7C45.7 322.3 91.3 341.7 137 334C182.7 326.3 228.3 291.7 274 278.8C319.7 266 365.3 275 411.2 276.5C457 278 503 272 548.8 284.2C594.7 296.3 640.3 326.7 686 327.8C731.7 329 777.3 301 823 293.3C868.7 285.7 914.3 298.3 937.2 304.7L960 311L960 541L937.2 541C914.3 541 868.7 541 823 541C777.3 541 731.7 541 686 541C640.3 541 594.7 541 548.8 541C503 541 457 541 411.2 541C365.3 541 319.7 541 274 541C228.3 541 182.7 541 137 541C91.3 541 45.7 541 22.8 541L0 541Z" fill="#ffffff"></path><path d="M0 333L22.8 344.7C45.7 356.3 91.3 379.7 137 388.2C182.7 396.7 228.3 390.3 274 377.8C319.7 365.3 365.3 346.7 411.2 351.7C457 356.7 503 385.3 548.8 398.2C594.7 411 640.3 408 686 398C731.7 388 777.3 371 823 360.5C868.7 350 914.3 346 937.2 344L960 342L960 541L937.2 541C914.3 541 868.7 541 823 541C777.3 541 731.7 541 686 541C640.3 541 594.7 541 548.8 541C503 541 457 541 411.2 541C365.3 541 319.7 541 274 541C228.3 541 182.7 541 137 541C91.3 541 45.7 541 22.8 541L0 541Z" fill="#f9f9f9"></path><path d="M0 441L22.8 447.5C45.7 454 91.3 467 137 473.2C182.7 479.3 228.3 478.7 274 471.2C319.7 463.7 365.3 449.3 411.2 438.5C457 427.7 503 420.3 548.8 414C594.7 407.7 640.3 402.3 686 400.3C731.7 398.3 777.3 399.7 823 413.7C868.7 427.7 914.3 454.3 937.2 467.7L960 481L960 541L937.2 541C914.3 541 868.7 541 823 541C777.3 541 731.7 541 686 541C640.3 541 594.7 541 548.8 541C503 541 457 541 411.2 541C365.3 541 319.7 541 274 541C228.3 541 182.7 541 137 541C91.3 541 45.7 541 22.8 541L0 541Z" fill="#eeeeee"></path></svg>