<svg id="visual" viewBox="0 0 900 600" width="900" height="600" xmlns="http://www.w3.org/2000/svg" xmlns:xlink="http://www.w3.org/1999/xlink" version="1.1"><rect x="0" y="0" width="900" height="600" fill="#FEFEFE"></rect><path d="M0 490L21.5 478.8C43 467.7 86 445.3 128.8 436.5C171.7 427.7 214.3 432.3 257.2 434.7C300 437 343 437 385.8 427.5C428.7 418 471.3 399 514.2 410.2C557 421.3 600 462.7 642.8 482.8C685.7 503 728.3 502 771.2 498.3C814 494.7 857 488.3 878.5 485.2L900 482L900 601L878.5 601C857 601 814 601 771.2 601C728.3 601 685.7 601 642.8 601C600 601 557 601 514.2 601C471.3 601 428.7 601 385.8 601C343 601 300 601 257.2 601C214.3 601 171.7 601 128.8 601C86 601 43 601 21.5 601L0 601Z" fill="#1d4ed8" stroke-linecap="round" stroke-linejoin="miter"></path></svg>